<svg xmlns="http://www.w3.org/2000/svg" fill="none" viewBox="0 0 24 24" id="Home-Dashboard--Streamline-Ultimate">
  <desc>
    Home Dashboard Streamline Icon: https://streamlinehq.com
  </desc>
  <path fill="#78eb7b" d="M2.375 9.70833V21.625c0 0.2431 0.09657 0.4763 0.26848 0.6482 0.17191 0.1718 0.40506 0.2685 0.64818 0.2685H9.7085c0.5063 0 0.9167-0.4104 0.9167-0.9167v-5.5c0-0.5063 0.4104-0.9167 0.9166-0.9167h0.9167c0.5062 0 0.9166 0.4104 0.9166 0.9167v5.5c0 0.5063 0.4104 0.9167 0.9167 0.9167h6.4167c0.2431 0 0.4763-0.0967 0.6482-0.2685 0.1718-0.1719 0.2684-0.4051 0.2684-0.6482V9.70833" stroke-width="1"></path>
  <path fill="#c9f7ca" d="M2.375 9.70833 12 2.375l9.625 7.33333V9.70833" stroke-width="1"></path>
  <path fill="#ffef5e" d="M9.7085 15.2083h4.5833c0.5063 0 0.9167 0.4104 0.9167 0.9167v5.5c0 0.5063-0.4104 0.9167-0.9167 0.9167H9.7085c-0.5063 0-0.9167-0.4104-0.9167-0.9167v-5.5c0-0.5063 0.4104-0.9167 0.9167-0.9167Z" stroke-width="1"></path>
  <path stroke="#191919" stroke-linecap="round" stroke-linejoin="round" d="M2.375 9.70833V21.625c0 0.2431 0.09657 0.4763 0.26848 0.6482 0.17191 0.1718 0.40506 0.2685 0.64818 0.2685H9.7085c0.5063 0 0.9167-0.4104 0.9167-0.9167v-5.5c0-0.5063 0.4104-0.9167 0.9166-0.9167h0.9167c0.5062 0 0.9166 0.4104 0.9166 0.9167v5.5c0 0.5063 0.4104 0.9167 0.9167 0.9167h6.4167c0.2431 0 0.4763-0.0967 0.6482-0.2685 0.1718-0.1719 0.2684-0.4051 0.2684-0.6482V9.70833" stroke-width="1"></path>
  <path stroke="#191919" stroke-linecap="round" stroke-linejoin="round" d="M1 10.625 12 2l11 8.625" stroke-width="1"></path>
</svg>
